<?xml version="1.0" encoding="utf-8"?>
<!-- Generator: Adobe Illustrator 26.2.1, SVG Export Plug-In . SVG Version: 6.00 Build 0)  -->
<svg version="1.1" id="Layer_1" xmlns="http://www.w3.org/2000/svg" xmlns:xlink="http://www.w3.org/1999/xlink" x="0px" y="0px"
	 viewBox="0 0 426.5 213.9" style="enable-background:new 0 0 426.5 213.9;" xml:space="preserve">
<style type="text/css">
	.st0{fill:#F88D2A;}
	.st1{fill:#3D3935;}
</style>
<path class="st0" d="M269.1,69.8L214.9,15c-0.1-0.1-0.2-0.1-0.2,0l-54.3,54.7v0.1v55.1c0,0.1,0.1,0.2,0.1,0.2H269
	c0.1,0,0.2-0.1,0.2-0.1l0,0V70C269.2,69.9,269.2,69.8,269.1,69.8z M253.8,108.3c0,1.1-0.2,1.3-1.2,1.3h-75.7c-1.1,0-1.1-0.9-1.1-1.2
	V77.8c0-1.6,0-1.6,1-2.7l0,0c1-1,36.2-36.5,36.6-36.8c0.6-0.6,1-0.9,1.4-0.9s0.8,0.3,1.2,0.8c1,1,36.7,37,37.1,37.3
	c0.5,0.4,0.8,1,0.7,1.6L253.8,108.3z"/>
<path class="st1" d="M133.9,169c-11-0.9-18.8-1.8-18.8-6.4c0-1.1,0.5-2.2,1.3-2.9c2.9-2.9,9.9-3.9,15.5-3.8
	c8.5,0.1,15.3,2.3,20.2,6.6l0.5,0.5l6.5-7l-0.6-0.5c-6.5-5.5-16.1-8.6-26.8-8.6c-16.1,0-26.9,6.6-26.9,16.3
	c0,11.7,15.8,14.3,27.7,15.3c12.5,1.1,18.4,2.4,18.4,6.9c0,4.8-6.1,7.5-16.7,7.5c-10.2,0-18-2.8-24.6-8.7l-0.6-0.5l-6.4,7.2l0.6,0.5
	c7.9,6.8,18.5,10.4,30.7,10.4c16.9,0,27.4-6.6,27.4-17.2C161.3,172.8,148.2,170.1,133.9,169z M216.8,169.4h-36.7v-21H170v52h10.1
	v-21.8h36.7v21.8H227v-52h-10.2V169.4z M247.3,148.4h-10.2v52h47.4v-9.2h-37.2V148.4z M302.7,178.5h34.5v-9.1h-34.5v-12h41v-9h-51.1
	v52h51.8v-9.1h-41.7V178.5z M379.9,173.5L361,148.4h-11.9l25.7,34v18h10.1v-18l25.6-34h-11.8L379.9,173.5z M53.6,136.5L19,200.4
	h11.9L39,185h41l8.2,15.4h12l-34.6-63.9H53.6z M43.9,175.6L59.5,146l15.6,29.6H43.9z"/>
</svg>
