<svg xmlns="http://www.w3.org/2000/svg" width="129" height="77.844" viewBox="0 0 129 77.844">
  <defs>
    <style>
      .cls-1, .cls-2 {
        fill: #fff;
      }

      .cls-2 {
        font-size: 5px;
        font-family: Arial-BoldMT, Arial;
        font-weight: 700;
      }

      .cls-3, .cls-5 {
        fill: none;
      }

      .cls-3 {
        stroke: #fff;
        stroke-width: 0.75px;
      }

      .cls-4 {
        stroke: none;
      }
    </style>
  </defs>
  <g id="Group_135" data-name="Group 135" transform="translate(-79 -40)">
    <g id="Group_132" data-name="Group 132" transform="translate(-333.176 -302.088)">
      <path id="Path_162" data-name="Path 162" class="cls-1" d="M463.642,411.329a46.233,46.233,0,0,0,8.484-5.5,30.349,30.349,0,0,0,5.705-6.024,62.45,62.45,0,0,0,7.462,8.443,155.986,155.986,0,0,0,13.829,11.684,110.734,110.734,0,0,1-8.557-9.5c-4.273-5.374-8.643-12.187-8.923-17.959-.291-6.241,5.791-15.923,13.355-25.769,9.43-12.272,20.96-24.611,20.96-24.611s-12.722,11.136-23.8,22.586c-6.5,6.72-12.311,13.4-15.517,18.952-3.64-5.163-9.208-10.657-14.3-15.2a157.066,157.066,0,0,0-12.762-10.246,151.569,151.569,0,0,1,11.273,12.266c5.768,7.034,11.7,15.552,12.266,21.405.536,5.443-2.242,10.748-4.838,14.308A32.762,32.762,0,0,1,463.642,411.329Z" transform="translate(-27.608)"/>
      <path id="Path_164" data-name="Path 164" class="cls-1" d="M539.727,426.537a5.674,5.674,0,1,0-5.676,5.67A5.67,5.67,0,0,0,539.727,426.537Z" transform="translate(-85.785 -58.161)"/>
    </g>
    <g id="Group_133" data-name="Group 133">
      <path id="Path_163" data-name="Path 163" class="cls-1" d="M523.446,488.628v-5.9h0a3.153,3.153,0,0,0,2.465-.924,4.613,4.613,0,0,0,.9-3.149V456.327a4.6,4.6,0,0,0-.9-3.149,3.134,3.134,0,0,0-2.465-.924h0v-5.9h0a11.165,11.165,0,0,1,5.4,1.215,8.03,8.03,0,0,1,3.331,3.537,12.777,12.777,0,0,1,1.141,5.637v21.508a12.74,12.74,0,0,1-1.141,5.625,8.083,8.083,0,0,1-3.331,3.548,11.16,11.16,0,0,1-5.4,1.21Zm-104.772-35.9H429.89v-5.91H412.176v41.344H429.89V482.25H418.674V470.144h8.911v-5.9h-8.911V452.727Zm104.772-6.378v5.9a3.11,3.11,0,0,0-2.453.924,4.594,4.594,0,0,0-.913,3.149v22.329a4.6,4.6,0,0,0,.913,3.149,3.128,3.128,0,0,0,2.453.924v5.9a11.189,11.189,0,0,1-5.4-1.21,8,8,0,0,1-3.321-3.548,12.744,12.744,0,0,1-1.141-5.625V456.738a12.782,12.782,0,0,1,1.141-5.637,7.945,7.945,0,0,1,3.321-3.537,11.2,11.2,0,0,1,5.4-1.215Zm-53.336.468v5.91h11.758l-12.345,29.648v5.785h19.02V482.25H476.2l12.346-29.643v-5.79Zm28.77,5.91H510.1v-5.91h-17.72v41.344H510.1V482.25H498.88V470.144h8.912v-5.9H498.88Z" transform="translate(-333.176 -379.056)"/>
      <text id="R" class="cls-2" transform="translate(202 72)"><tspan x="0" y="0">R</tspan></text>
      <g id="Ellipse_17" data-name="Ellipse 17" class="cls-3" transform="translate(200 66)">
        <circle class="cls-4" cx="4" cy="4" r="4"/>
        <circle class="cls-5" cx="4" cy="4" r="3.625"/>
      </g>
    </g>
  </g>
</svg>
